<mxfile host="Electron" modified="2023-06-24T01:16:04.869Z" agent="Mozilla/5.0 (X11; Linux x86_64) AppleWebKit/537.36 (KHTML, like Gecko) draw.io/21.5.0 Chrome/112.0.5615.204 Electron/24.5.1 Safari/537.36" etag="4nYZQ4R0pYPb8E4Wn72S" version="21.5.0" type="device">
  <diagram id="C5RBs43oDa-KdzZeNtuy" name="Page-1">
    <mxGraphModel dx="3934" dy="2574" grid="1" gridSize="10" guides="1" tooltips="1" connect="1" arrows="1" fold="1" page="1" pageScale="1" pageWidth="827" pageHeight="1169" math="0" shadow="0">
      <root>
        <mxCell id="WIyWlLk6GJQsqaUBKTNV-0" />
        <mxCell id="WIyWlLk6GJQsqaUBKTNV-1" parent="WIyWlLk6GJQsqaUBKTNV-0" />
        <mxCell id="-sMgd-W_DhPXKZcvOKWs-15" style="edgeStyle=orthogonalEdgeStyle;rounded=0;orthogonalLoop=1;jettySize=auto;html=1;exitX=1;exitY=0.5;exitDx=0;exitDy=0;entryX=0;entryY=0.5;entryDx=0;entryDy=0;" parent="WIyWlLk6GJQsqaUBKTNV-1" source="-sMgd-W_DhPXKZcvOKWs-0" target="-sMgd-W_DhPXKZcvOKWs-6" edge="1">
          <mxGeometry relative="1" as="geometry" />
        </mxCell>
        <mxCell id="-sMgd-W_DhPXKZcvOKWs-16" value="register cb" style="edgeLabel;html=1;align=center;verticalAlign=middle;resizable=0;points=[];" parent="-sMgd-W_DhPXKZcvOKWs-15" vertex="1" connectable="0">
          <mxGeometry x="0.1692" y="2" relative="1" as="geometry">
            <mxPoint x="-16" y="2" as="offset" />
          </mxGeometry>
        </mxCell>
        <mxCell id="SMN3iShrJXoWPMDQFKxo-10" style="edgeStyle=orthogonalEdgeStyle;rounded=0;orthogonalLoop=1;jettySize=auto;html=1;exitX=1;exitY=0.75;exitDx=0;exitDy=0;entryX=0.053;entryY=1.006;entryDx=0;entryDy=0;entryPerimeter=0;" edge="1" parent="WIyWlLk6GJQsqaUBKTNV-1" source="-sMgd-W_DhPXKZcvOKWs-0" target="SMN3iShrJXoWPMDQFKxo-9">
          <mxGeometry relative="1" as="geometry">
            <Array as="points">
              <mxPoint x="190" y="320" />
              <mxPoint x="830" y="320" />
              <mxPoint x="830" y="296" />
            </Array>
          </mxGeometry>
        </mxCell>
        <mxCell id="SMN3iShrJXoWPMDQFKxo-11" value="register cb" style="edgeLabel;html=1;align=center;verticalAlign=middle;resizable=0;points=[];" vertex="1" connectable="0" parent="SMN3iShrJXoWPMDQFKxo-10">
          <mxGeometry x="0.0286" y="-2" relative="1" as="geometry">
            <mxPoint as="offset" />
          </mxGeometry>
        </mxCell>
        <mxCell id="-sMgd-W_DhPXKZcvOKWs-0" value="&lt;p style=&quot;margin:0px;margin-top:4px;text-align:center;&quot;&gt;&lt;i&gt;&amp;lt;&amp;lt;Interface&amp;gt;&amp;gt;&lt;/i&gt;&lt;br&gt;&lt;b&gt;network_interface&lt;/b&gt;&lt;/p&gt;&lt;hr size=&quot;1&quot;&gt;&lt;p style=&quot;margin:0px;margin-left:4px;&quot;&gt;# _termination_handler: std::function&amp;lt;void(int)&amp;gt;&lt;br&gt;# _gps_lk: std::mutex&lt;/p&gt;&lt;p style=&quot;margin:0px;margin-left:4px;&quot;&gt;# _gps: std::tuple&amp;lt;float, float, float, float&amp;gt;&lt;/p&gt;&lt;p style=&quot;margin:0px;margin-left:4px;&quot;&gt;# _cs_lk: std::mutex&lt;/p&gt;&lt;p style=&quot;margin:0px;margin-left:4px;&quot;&gt;# _cs: std::tuple&amp;lt;uint8_t, uint8_t, int8_t, int8_t, int8_t&amp;gt;&lt;/p&gt;&lt;hr size=&quot;1&quot;&gt;&lt;p style=&quot;margin:0px;margin-left:4px;&quot;&gt;+ gps_cb(float, float, float, float): void&lt;br&gt;+ cs_cb(uint8_t, uint8_t, int8_t, int8_t, int8_t): void&lt;/p&gt;" style="verticalAlign=top;align=left;overflow=fill;fontSize=12;fontFamily=Helvetica;html=1;whiteSpace=wrap;" parent="WIyWlLk6GJQsqaUBKTNV-1" vertex="1">
          <mxGeometry x="-120" y="120" width="310" height="180" as="geometry" />
        </mxCell>
        <mxCell id="-sMgd-W_DhPXKZcvOKWs-1" value="&lt;p style=&quot;margin:0px;margin-top:4px;text-align:center;&quot;&gt;&lt;i&gt;&amp;lt;&amp;lt;Interface&amp;gt;&amp;gt;&lt;/i&gt;&lt;br&gt;&lt;b&gt;base_controller&lt;/b&gt;&lt;/p&gt;&lt;hr size=&quot;1&quot;&gt;&lt;p style=&quot;margin:0px;margin-left:4px;&quot;&gt;# _tag: std::string&lt;br&gt;# _state: base_controller::state&lt;/p&gt;&lt;p style=&quot;margin:0px;margin-left:4px;&quot;&gt;# _lk: std::mutex&lt;/p&gt;&lt;p style=&quot;margin:0px;margin-left:4px;&quot;&gt;# _cv: std::condition_variable&lt;/p&gt;&lt;p style=&quot;margin:0px;margin-left:4px;&quot;&gt;# _running: bool&lt;/p&gt;&lt;p style=&quot;margin:0px;margin-left:4px;&quot;&gt;# _worker: std::thread&lt;/p&gt;&lt;hr size=&quot;1&quot;&gt;&lt;p style=&quot;margin:0px;margin-left:4px;&quot;&gt;+ init(): bool&lt;br&gt;+ start(): void&lt;/p&gt;&lt;p style=&quot;margin:0px;margin-left:4px;&quot;&gt;+ terminate(): void&lt;/p&gt;&lt;p style=&quot;margin:0px;margin-left:4px;&quot;&gt;+ set_state(state): void&lt;/p&gt;" style="verticalAlign=top;align=left;overflow=fill;fontSize=12;fontFamily=Helvetica;html=1;whiteSpace=wrap;" parent="WIyWlLk6GJQsqaUBKTNV-1" vertex="1">
          <mxGeometry x="250" y="-230" width="430" height="230" as="geometry" />
        </mxCell>
        <mxCell id="-sMgd-W_DhPXKZcvOKWs-4" value="&lt;p style=&quot;margin:0px;margin-top:4px;text-align:center;&quot;&gt;&lt;b&gt;http_controller&lt;/b&gt;&lt;/p&gt;&lt;hr size=&quot;1&quot;&gt;&lt;p style=&quot;margin:0px;margin-left:4px;&quot;&gt;- IP: std::string&lt;/p&gt;&lt;p style=&quot;margin:0px;margin-left:4px;&quot;&gt;- PORT: uint16_t&lt;/p&gt;&lt;p style=&quot;margin:0px;margin-left:4px;&quot;&gt;- _svr: std::unqiue_ptr&amp;lt;httplib::Server&amp;gt;&lt;/p&gt;&lt;hr size=&quot;1&quot;&gt;&lt;p style=&quot;margin:0px;margin-left:4px;&quot;&gt;&lt;br&gt;&lt;/p&gt;" style="verticalAlign=top;align=left;overflow=fill;fontSize=12;fontFamily=Helvetica;html=1;whiteSpace=wrap;" parent="WIyWlLk6GJQsqaUBKTNV-1" vertex="1">
          <mxGeometry x="-120" y="350" width="310" height="120" as="geometry" />
        </mxCell>
        <mxCell id="-sMgd-W_DhPXKZcvOKWs-5" value="" style="endArrow=block;dashed=1;endFill=0;endSize=12;html=1;rounded=0;exitX=0.5;exitY=0;exitDx=0;exitDy=0;entryX=0.5;entryY=1;entryDx=0;entryDy=0;" parent="WIyWlLk6GJQsqaUBKTNV-1" source="-sMgd-W_DhPXKZcvOKWs-4" target="-sMgd-W_DhPXKZcvOKWs-0" edge="1">
          <mxGeometry width="160" relative="1" as="geometry">
            <mxPoint x="90" y="440" as="sourcePoint" />
            <mxPoint x="270" y="300" as="targetPoint" />
          </mxGeometry>
        </mxCell>
        <mxCell id="-sMgd-W_DhPXKZcvOKWs-6" value="&lt;p style=&quot;margin:0px;margin-top:4px;text-align:center;&quot;&gt;&lt;b&gt;gps_controller&lt;/b&gt;&lt;/p&gt;&lt;hr size=&quot;1&quot;&gt;&lt;p style=&quot;margin:0px;margin-left:4px;&quot;&gt;- GPSD_PORT: std::string&lt;/p&gt;&lt;p style=&quot;margin:0px;margin-left:4px;&quot;&gt;- GPS_DELAY: size_t&lt;/p&gt;&lt;p style=&quot;margin:0px;margin-left:4px;&quot;&gt;- MODE_STR: [std::string]&lt;/p&gt;&lt;p style=&quot;margin:0px;margin-left:4px;&quot;&gt;- cbs: std::vector&amp;lt;std::function&amp;lt;void(float, float, float, float)&amp;gt;&amp;gt;&lt;/p&gt;&lt;p style=&quot;margin:0px;margin-left:4px;&quot;&gt;- _gps_data: gps_data_t&lt;/p&gt;&lt;hr size=&quot;1&quot;&gt;&lt;p style=&quot;margin:0px;margin-left:4px;&quot;&gt;+ register_cb(std::function&amp;lt;void(float, float, float, float)&amp;gt;: void&lt;/p&gt;&lt;p style=&quot;margin:0px;margin-left:4px;&quot;&gt;- p_read_gps(): void&lt;/p&gt;" style="verticalAlign=top;align=left;overflow=fill;fontSize=12;fontFamily=Helvetica;html=1;whiteSpace=wrap;" parent="WIyWlLk6GJQsqaUBKTNV-1" vertex="1">
          <mxGeometry x="340" y="125" width="380" height="170" as="geometry" />
        </mxCell>
        <mxCell id="-sMgd-W_DhPXKZcvOKWs-8" value="" style="endArrow=block;endFill=1;html=1;edgeStyle=orthogonalEdgeStyle;align=left;verticalAlign=top;rounded=0;exitX=0.5;exitY=0;exitDx=0;exitDy=0;entryX=0.156;entryY=0.991;entryDx=0;entryDy=0;entryPerimeter=0;" parent="WIyWlLk6GJQsqaUBKTNV-1" source="-sMgd-W_DhPXKZcvOKWs-0" target="-sMgd-W_DhPXKZcvOKWs-1" edge="1">
          <mxGeometry x="-1" relative="1" as="geometry">
            <mxPoint x="40" y="100" as="sourcePoint" />
            <mxPoint x="300" y="10" as="targetPoint" />
          </mxGeometry>
        </mxCell>
        <mxCell id="-sMgd-W_DhPXKZcvOKWs-11" value="" style="endArrow=block;dashed=1;endFill=0;endSize=12;html=1;rounded=0;entryX=0.645;entryY=1.009;entryDx=0;entryDy=0;entryPerimeter=0;exitX=0.5;exitY=0;exitDx=0;exitDy=0;" parent="WIyWlLk6GJQsqaUBKTNV-1" source="-sMgd-W_DhPXKZcvOKWs-6" target="-sMgd-W_DhPXKZcvOKWs-1" edge="1">
          <mxGeometry width="160" relative="1" as="geometry">
            <mxPoint x="100" y="110" as="sourcePoint" />
            <mxPoint x="260" y="110" as="targetPoint" />
          </mxGeometry>
        </mxCell>
        <mxCell id="SMN3iShrJXoWPMDQFKxo-9" value="&lt;p style=&quot;margin:0px;margin-top:4px;text-align:center;&quot;&gt;&lt;b&gt;serial_controller&lt;/b&gt;&lt;/p&gt;&lt;hr size=&quot;1&quot;&gt;&lt;p style=&quot;margin:0px;margin-left:4px;&quot;&gt;- GPSD_PORT: std::string&lt;/p&gt;&lt;p style=&quot;margin:0px;margin-left:4px;&quot;&gt;- GPS_DELAY: size_t&lt;/p&gt;&lt;p style=&quot;margin:0px;margin-left:4px;&quot;&gt;- MODE_STR: [std::string]&lt;/p&gt;&lt;p style=&quot;margin:0px;margin-left:4px;&quot;&gt;- cbs: std::vector&amp;lt;std::function&amp;lt;void(float, float, float, float)&amp;gt;&amp;gt;&lt;/p&gt;&lt;p style=&quot;margin:0px;margin-left:4px;&quot;&gt;- _gps_data: gps_data_t&lt;/p&gt;&lt;hr size=&quot;1&quot;&gt;&lt;p style=&quot;margin:0px;margin-left:4px;&quot;&gt;+ register_cb(std::function&amp;lt;void(float, float, float, float)&amp;gt;: void&lt;/p&gt;&lt;p style=&quot;margin:0px;margin-left:4px;&quot;&gt;- p_read_gps(): void&lt;/p&gt;" style="verticalAlign=top;align=left;overflow=fill;fontSize=12;fontFamily=Helvetica;html=1;whiteSpace=wrap;" vertex="1" parent="WIyWlLk6GJQsqaUBKTNV-1">
          <mxGeometry x="810" y="125" width="380" height="170" as="geometry" />
        </mxCell>
        <mxCell id="SMN3iShrJXoWPMDQFKxo-12" value="" style="endArrow=block;dashed=1;endFill=0;endSize=12;html=1;rounded=0;entryX=0.645;entryY=1.009;entryDx=0;entryDy=0;entryPerimeter=0;" edge="1" parent="WIyWlLk6GJQsqaUBKTNV-1">
          <mxGeometry width="160" relative="1" as="geometry">
            <mxPoint x="1010" y="123" as="sourcePoint" />
            <mxPoint x="660" as="targetPoint" />
          </mxGeometry>
        </mxCell>
        <mxCell id="SMN3iShrJXoWPMDQFKxo-15" value="MCU Logs" style="shape=note;size=20;whiteSpace=wrap;html=1;fillColor=#FF99FF;fontColor=#000000;" vertex="1" parent="WIyWlLk6GJQsqaUBKTNV-1">
          <mxGeometry x="-290" y="990" width="100" height="100" as="geometry" />
        </mxCell>
        <mxCell id="SMN3iShrJXoWPMDQFKxo-16" value="GPS Logs" style="shape=note;size=20;whiteSpace=wrap;html=1;fillColor=#FF99FF;fontColor=#000000;" vertex="1" parent="WIyWlLk6GJQsqaUBKTNV-1">
          <mxGeometry x="-130" y="990" width="100" height="100" as="geometry" />
        </mxCell>
        <mxCell id="SMN3iShrJXoWPMDQFKxo-17" value="" style="rounded=1;whiteSpace=wrap;html=1;absoluteArcSize=1;arcSize=14;strokeWidth=2;" vertex="1" parent="WIyWlLk6GJQsqaUBKTNV-1">
          <mxGeometry x="-320" y="730" width="500" height="210" as="geometry" />
        </mxCell>
        <mxCell id="SMN3iShrJXoWPMDQFKxo-19" style="edgeStyle=orthogonalEdgeStyle;rounded=0;orthogonalLoop=1;jettySize=auto;html=1;exitX=0.5;exitY=1;exitDx=0;exitDy=0;entryX=0.5;entryY=0;entryDx=0;entryDy=0;entryPerimeter=0;" edge="1" parent="WIyWlLk6GJQsqaUBKTNV-1" source="SMN3iShrJXoWPMDQFKxo-18" target="SMN3iShrJXoWPMDQFKxo-15">
          <mxGeometry relative="1" as="geometry" />
        </mxCell>
        <mxCell id="SMN3iShrJXoWPMDQFKxo-20" value="Logs&amp;nbsp;" style="edgeLabel;html=1;align=center;verticalAlign=middle;resizable=0;points=[];" vertex="1" connectable="0" parent="SMN3iShrJXoWPMDQFKxo-19">
          <mxGeometry x="0.2038" y="2" relative="1" as="geometry">
            <mxPoint as="offset" />
          </mxGeometry>
        </mxCell>
        <mxCell id="SMN3iShrJXoWPMDQFKxo-38" style="edgeStyle=orthogonalEdgeStyle;rounded=0;orthogonalLoop=1;jettySize=auto;html=1;exitX=1;exitY=0.75;exitDx=0;exitDy=0;entryX=0;entryY=0.75;entryDx=0;entryDy=0;" edge="1" parent="WIyWlLk6GJQsqaUBKTNV-1" source="SMN3iShrJXoWPMDQFKxo-18" target="SMN3iShrJXoWPMDQFKxo-37">
          <mxGeometry relative="1" as="geometry">
            <Array as="points" />
          </mxGeometry>
        </mxCell>
        <mxCell id="SMN3iShrJXoWPMDQFKxo-42" value="cb: Gyro" style="edgeLabel;html=1;align=center;verticalAlign=middle;resizable=0;points=[];" vertex="1" connectable="0" parent="SMN3iShrJXoWPMDQFKxo-38">
          <mxGeometry x="-0.7243" relative="1" as="geometry">
            <mxPoint x="9" as="offset" />
          </mxGeometry>
        </mxCell>
        <mxCell id="SMN3iShrJXoWPMDQFKxo-40" style="edgeStyle=orthogonalEdgeStyle;rounded=0;orthogonalLoop=1;jettySize=auto;html=1;exitX=1;exitY=0.25;exitDx=0;exitDy=0;entryX=0;entryY=0.5;entryDx=0;entryDy=0;" edge="1" parent="WIyWlLk6GJQsqaUBKTNV-1" source="SMN3iShrJXoWPMDQFKxo-18" target="SMN3iShrJXoWPMDQFKxo-37">
          <mxGeometry relative="1" as="geometry" />
        </mxCell>
        <mxCell id="SMN3iShrJXoWPMDQFKxo-41" value="cb: CS" style="edgeLabel;html=1;align=center;verticalAlign=middle;resizable=0;points=[];" vertex="1" connectable="0" parent="SMN3iShrJXoWPMDQFKxo-40">
          <mxGeometry x="-0.6406" relative="1" as="geometry">
            <mxPoint as="offset" />
          </mxGeometry>
        </mxCell>
        <mxCell id="SMN3iShrJXoWPMDQFKxo-18" value="serial_controller" style="rounded=0;whiteSpace=wrap;html=1;fillColor=#99CCFF;fontColor=#000000;" vertex="1" parent="WIyWlLk6GJQsqaUBKTNV-1">
          <mxGeometry x="-300" y="850" width="120" height="60" as="geometry" />
        </mxCell>
        <mxCell id="SMN3iShrJXoWPMDQFKxo-22" style="edgeStyle=orthogonalEdgeStyle;rounded=0;orthogonalLoop=1;jettySize=auto;html=1;exitX=1;exitY=0.5;exitDx=0;exitDy=0;entryX=0.5;entryY=0;entryDx=0;entryDy=0;entryPerimeter=0;" edge="1" parent="WIyWlLk6GJQsqaUBKTNV-1" source="SMN3iShrJXoWPMDQFKxo-21" target="SMN3iShrJXoWPMDQFKxo-16">
          <mxGeometry relative="1" as="geometry">
            <Array as="points">
              <mxPoint x="-80" y="800" />
            </Array>
          </mxGeometry>
        </mxCell>
        <mxCell id="SMN3iShrJXoWPMDQFKxo-23" value="Logs" style="edgeLabel;html=1;align=center;verticalAlign=middle;resizable=0;points=[];" vertex="1" connectable="0" parent="SMN3iShrJXoWPMDQFKxo-22">
          <mxGeometry x="0.211" y="1" relative="1" as="geometry">
            <mxPoint x="-1" y="24" as="offset" />
          </mxGeometry>
        </mxCell>
        <mxCell id="SMN3iShrJXoWPMDQFKxo-44" style="edgeStyle=orthogonalEdgeStyle;rounded=0;orthogonalLoop=1;jettySize=auto;html=1;exitX=1;exitY=0.25;exitDx=0;exitDy=0;entryX=0;entryY=0.25;entryDx=0;entryDy=0;" edge="1" parent="WIyWlLk6GJQsqaUBKTNV-1" source="SMN3iShrJXoWPMDQFKxo-21" target="SMN3iShrJXoWPMDQFKxo-37">
          <mxGeometry relative="1" as="geometry" />
        </mxCell>
        <mxCell id="SMN3iShrJXoWPMDQFKxo-45" value="cb: GPS" style="edgeLabel;html=1;align=center;verticalAlign=middle;resizable=0;points=[];" vertex="1" connectable="0" parent="SMN3iShrJXoWPMDQFKxo-44">
          <mxGeometry x="-0.7456" y="1" relative="1" as="geometry">
            <mxPoint x="12" as="offset" />
          </mxGeometry>
        </mxCell>
        <mxCell id="SMN3iShrJXoWPMDQFKxo-21" value="gps_controller" style="rounded=0;whiteSpace=wrap;html=1;fillColor=#99CCFF;fontColor=#000000;" vertex="1" parent="WIyWlLk6GJQsqaUBKTNV-1">
          <mxGeometry x="-300" y="770" width="120" height="60" as="geometry" />
        </mxCell>
        <mxCell id="SMN3iShrJXoWPMDQFKxo-30" style="edgeStyle=orthogonalEdgeStyle;rounded=0;orthogonalLoop=1;jettySize=auto;html=1;exitX=1;exitY=0.5;exitDx=0;exitDy=0;entryX=0;entryY=0.5;entryDx=0;entryDy=0;" edge="1" parent="WIyWlLk6GJQsqaUBKTNV-1" source="SMN3iShrJXoWPMDQFKxo-24" target="SMN3iShrJXoWPMDQFKxo-25">
          <mxGeometry relative="1" as="geometry" />
        </mxCell>
        <mxCell id="SMN3iShrJXoWPMDQFKxo-31" value="Polls" style="edgeLabel;html=1;align=center;verticalAlign=middle;resizable=0;points=[];" vertex="1" connectable="0" parent="SMN3iShrJXoWPMDQFKxo-30">
          <mxGeometry x="-0.254" relative="1" as="geometry">
            <mxPoint as="offset" />
          </mxGeometry>
        </mxCell>
        <mxCell id="SMN3iShrJXoWPMDQFKxo-24" value="GPS" style="ellipse;whiteSpace=wrap;html=1;aspect=fixed;fillColor=#FFCC99;fontColor=#000000;" vertex="1" parent="WIyWlLk6GJQsqaUBKTNV-1">
          <mxGeometry x="-640" y="765" width="70" height="70" as="geometry" />
        </mxCell>
        <mxCell id="SMN3iShrJXoWPMDQFKxo-32" style="edgeStyle=orthogonalEdgeStyle;rounded=0;orthogonalLoop=1;jettySize=auto;html=1;entryX=0;entryY=0.5;entryDx=0;entryDy=0;" edge="1" parent="WIyWlLk6GJQsqaUBKTNV-1" source="SMN3iShrJXoWPMDQFKxo-25" target="SMN3iShrJXoWPMDQFKxo-21">
          <mxGeometry relative="1" as="geometry" />
        </mxCell>
        <mxCell id="SMN3iShrJXoWPMDQFKxo-33" value="Reads" style="edgeLabel;html=1;align=center;verticalAlign=middle;resizable=0;points=[];" vertex="1" connectable="0" parent="SMN3iShrJXoWPMDQFKxo-32">
          <mxGeometry x="-0.2568" y="1" relative="1" as="geometry">
            <mxPoint as="offset" />
          </mxGeometry>
        </mxCell>
        <mxCell id="SMN3iShrJXoWPMDQFKxo-25" value="gpsd" style="rounded=1;whiteSpace=wrap;html=1;absoluteArcSize=1;arcSize=14;strokeWidth=2;fillColor=#FFCCCC;fontColor=#000000;" vertex="1" parent="WIyWlLk6GJQsqaUBKTNV-1">
          <mxGeometry x="-500" y="770" width="110" height="60" as="geometry" />
        </mxCell>
        <mxCell id="SMN3iShrJXoWPMDQFKxo-35" style="edgeStyle=orthogonalEdgeStyle;rounded=0;orthogonalLoop=1;jettySize=auto;html=1;entryX=0;entryY=0.5;entryDx=0;entryDy=0;" edge="1" parent="WIyWlLk6GJQsqaUBKTNV-1" source="SMN3iShrJXoWPMDQFKxo-34" target="SMN3iShrJXoWPMDQFKxo-18">
          <mxGeometry relative="1" as="geometry" />
        </mxCell>
        <mxCell id="SMN3iShrJXoWPMDQFKxo-36" value="Reads" style="edgeLabel;html=1;align=center;verticalAlign=middle;resizable=0;points=[];" vertex="1" connectable="0" parent="SMN3iShrJXoWPMDQFKxo-35">
          <mxGeometry x="-0.2" y="1" relative="1" as="geometry">
            <mxPoint as="offset" />
          </mxGeometry>
        </mxCell>
        <mxCell id="SMN3iShrJXoWPMDQFKxo-34" value="Serial&lt;br&gt;Port" style="ellipse;whiteSpace=wrap;html=1;aspect=fixed;fillColor=#FF99CC;fontColor=#000000;" vertex="1" parent="WIyWlLk6GJQsqaUBKTNV-1">
          <mxGeometry x="-640" y="845" width="70" height="70" as="geometry" />
        </mxCell>
        <mxCell id="SMN3iShrJXoWPMDQFKxo-37" value="network_interface&lt;br&gt;(http_controller)" style="rounded=0;whiteSpace=wrap;html=1;fillColor=#99CCFF;fontColor=#000000;" vertex="1" parent="WIyWlLk6GJQsqaUBKTNV-1">
          <mxGeometry x="-50" y="755" width="210" height="160" as="geometry" />
        </mxCell>
        <mxCell id="SMN3iShrJXoWPMDQFKxo-49" style="edgeStyle=orthogonalEdgeStyle;rounded=0;orthogonalLoop=1;jettySize=auto;html=1;exitX=1;exitY=0.75;exitDx=0;exitDy=0;entryX=0;entryY=0.5;entryDx=0;entryDy=0;" edge="1" parent="WIyWlLk6GJQsqaUBKTNV-1" source="SMN3iShrJXoWPMDQFKxo-47" target="SMN3iShrJXoWPMDQFKxo-34">
          <mxGeometry relative="1" as="geometry" />
        </mxCell>
        <mxCell id="SMN3iShrJXoWPMDQFKxo-50" value="Writes" style="edgeLabel;html=1;align=center;verticalAlign=middle;resizable=0;points=[];" vertex="1" connectable="0" parent="SMN3iShrJXoWPMDQFKxo-49">
          <mxGeometry x="-0.2639" y="4" relative="1" as="geometry">
            <mxPoint x="11" y="5" as="offset" />
          </mxGeometry>
        </mxCell>
        <mxCell id="SMN3iShrJXoWPMDQFKxo-58" style="edgeStyle=orthogonalEdgeStyle;rounded=0;orthogonalLoop=1;jettySize=auto;html=1;exitX=0.25;exitY=0;exitDx=0;exitDy=0;entryX=0.5;entryY=1;entryDx=0;entryDy=0;" edge="1" parent="WIyWlLk6GJQsqaUBKTNV-1" source="SMN3iShrJXoWPMDQFKxo-47" target="SMN3iShrJXoWPMDQFKxo-52">
          <mxGeometry relative="1" as="geometry" />
        </mxCell>
        <mxCell id="SMN3iShrJXoWPMDQFKxo-59" value="Writes" style="edgeLabel;html=1;align=center;verticalAlign=middle;resizable=0;points=[];" vertex="1" connectable="0" parent="SMN3iShrJXoWPMDQFKxo-58">
          <mxGeometry x="0.3328" y="3" relative="1" as="geometry">
            <mxPoint as="offset" />
          </mxGeometry>
        </mxCell>
        <mxCell id="SMN3iShrJXoWPMDQFKxo-47" value="" style="rounded=1;whiteSpace=wrap;html=1;absoluteArcSize=1;arcSize=14;strokeWidth=2;" vertex="1" parent="WIyWlLk6GJQsqaUBKTNV-1">
          <mxGeometry x="-1080" y="770" width="270" height="145" as="geometry" />
        </mxCell>
        <mxCell id="SMN3iShrJXoWPMDQFKxo-52" value="Servos" style="ellipse;whiteSpace=wrap;html=1;aspect=fixed;fillColor=#FFCC99;fontColor=#000000;" vertex="1" parent="WIyWlLk6GJQsqaUBKTNV-1">
          <mxGeometry x="-1060" y="585" width="70" height="70" as="geometry" />
        </mxCell>
        <mxCell id="SMN3iShrJXoWPMDQFKxo-56" style="edgeStyle=orthogonalEdgeStyle;rounded=0;orthogonalLoop=1;jettySize=auto;html=1;entryX=0.75;entryY=0;entryDx=0;entryDy=0;" edge="1" parent="WIyWlLk6GJQsqaUBKTNV-1" source="SMN3iShrJXoWPMDQFKxo-55" target="SMN3iShrJXoWPMDQFKxo-47">
          <mxGeometry relative="1" as="geometry" />
        </mxCell>
        <mxCell id="SMN3iShrJXoWPMDQFKxo-57" value="Reads" style="edgeLabel;html=1;align=center;verticalAlign=middle;resizable=0;points=[];" vertex="1" connectable="0" parent="SMN3iShrJXoWPMDQFKxo-56">
          <mxGeometry x="-0.3296" y="2" relative="1" as="geometry">
            <mxPoint as="offset" />
          </mxGeometry>
        </mxCell>
        <mxCell id="SMN3iShrJXoWPMDQFKxo-55" value="Gyro" style="ellipse;whiteSpace=wrap;html=1;aspect=fixed;fillColor=#FFCC99;fontColor=#000000;" vertex="1" parent="WIyWlLk6GJQsqaUBKTNV-1">
          <mxGeometry x="-910" y="584" width="70" height="70" as="geometry" />
        </mxCell>
      </root>
    </mxGraphModel>
  </diagram>
</mxfile>
